<svg width="2145" height="2006" viewBox="0 0 2145 2006" fill="none" xmlns="http://www.w3.org/2000/svg">
<path d="M975.839 984.899C979.6 1015.61 992.701 1046.56 1002.72 1075.65C1017.82 1119.53 1030.81 1160.39 1039.28 1206.01C1042.59 1223.84 1051.75 1222.86 1025.26 1223.64C994.16 1224.56 962.99 1223.34 931.906 1224.94C907.389 1226.2 884.859 1232.07 860.949 1236.5C831.47 1241.96 802.519 1229.99 777.853 1214.97C752.965 1199.81 746.131 1175.71 742.302 1147.91C735.9 1101.44 731.949 1054.57 726.116 1008.02C722.71 980.832 718.98 953.732 713.11 926.948C709.404 910.041 701.053 891.69 699.814 874.345C699.7 872.748 698.97 870.311 700.392 869.576C719.519 859.699 742.667 861.331 763.979 858.304C832.197 848.615 854.834 846.343 923.813 835.47C954.015 830.71 983.448 820.09 1013.99 818.706C1042.09 817.434 1044.95 881.712 1047.08 892.698C1062.56 972.392 1078.02 1052.03 1094.2 1131.58C1105.98 1189.53 1119.27 1247.82 1128.16 1306.3C1132.52 1334.98 1134.83 1364.18 1139.86 1392.72C1140.9 1398.61 1151.83 1432.51 1141.16 1434.92C1096.42 1445.02 1036.7 1439.55 993.036 1439.83C888.416 1440.51 783.622 1441.48 679.004 1439.83C658.928 1439.52 644.795 1440.78 628.857 1430.3C619.953 1424.44 592.023 1415.25 589.405 1403.99C586.008 1389.39 588.194 1369.42 587.959 1355.29C586.374 1259.76 580.633 1164.42 571.629 1069.3C556.389 908.291 534.779 747.032 508.187 587.482C503.768 560.967 498.622 534.525 495.181 507.854C491.823 481.836 511.233 483.201 534.489 483.286C609.386 483.562 684.496 490.74 759.355 492.969C873.98 496.382 988.708 493.72 1103.3 497.593C1132.88 498.593 1163.56 500.378 1193.05 503.952C1201.77 505.01 1205.35 512.183 1208.8 519.849C1232.07 571.533 1243.42 629.693 1252.73 685.174C1277.04 829.994 1290.84 976.769 1311.11 1122.19C1327.17 1237.31 1349.69 1351.25 1362.13 1466.86C1364.59 1489.77 1371.23 1512.75 1371.23 1535.79C1371.23 1551.98 1371.23 1568.16 1371.23 1584.35C1371.23 1587.54 1374.14 1607.13 1369.5 1609.21C1361.27 1612.89 1345.09 1611.78 1337.85 1612.1C1260.4 1615.46 1182.96 1617.66 1105.47 1619.76C994.58 1622.75 884.092 1630.21 773.806 1642.16C701.38 1650 629.424 1650.06 556.744 1653.43C487.157 1656.65 417.563 1656.03 347.919 1656.03C338.733 1656.03 300.119 1663.66 301.53 1647.94C308.457 1570.75 300.493 1489.39 289.246 1413.24C263.548 1239.26 243.718 1064.58 217.422 890.675C202.677 793.163 195.456 698.629 195.456 600.199C195.456 527.904 198.859 454.751 189.964 382.848C189.493 379.038 172.919 306.713 179.848 302.787C198.74 292.081 259.086 292.689 271.615 291.948C422.548 283.015 573.884 285.754 724.96 281.254C917.211 275.527 1108.73 259.286 1300.28 242.668C1316.9 241.226 1333.52 238.154 1350.13 236.888C1366.98 235.604 1398.76 235.768 1411.99 235.731C1454.18 235.613 1496.56 231.906 1538.58 235.731C1606.38 241.903 1618.38 274.193 1632.66 336.459C1658.35 448.476 1672.88 565.533 1687.72 679.394C1700.57 777.946 1708.86 876.607 1712.29 975.939C1715.75 1076.13 1711.18 1176.78 1718.65 1276.82C1725.69 1371.11 1749.54 1463.27 1754.49 1557.76C1757.39 1613.24 1756.22 1668.98 1756.22 1724.53C1756.22 1756.95 1756.22 1789.37 1756.22 1821.79C1756.22 1832.67 1623.69 1835.27 1613.73 1835.81C1380 1848.42 1145.8 1844.73 912.252 1858.64C746.647 1868.5 579.131 1861.53 413.24 1861.53C334.769 1861.53 256.297 1861.53 177.825 1861.53C172.175 1861.53 164.202 1863.21 159.905 1858.64C139.784 1837.26 126.755 1806.6 110.481 1782.19C96.7667 1761.62 96.9748 1744.43 94.0059 1719.47C87.1266 1661.63 77.5018 1604.2 69.7273 1546.49C56.6376 1449.32 50.4779 1352.87 49.7842 1254.85C48.5343 1078.26 51.4819 901.976 43.281 725.494C37.5074 601.245 39.3342 477.314 36.1998 353.078C34.6631 292.169 23.5864 234.279 15.1005 174.312C12.6738 157.163 14.5414 136.477 9.60893 119.83C6.74746 110.173 5.5625 103.237 5.5625 92.9502C5.5625 92.5744 4.97912 85.3602 5.5625 84.8573C9.97291 81.0552 16.6076 81.0413 22.3263 79.9438C43.8225 75.8183 83.1153 69.9858 101.81 67.5155C293.325 42.208 485.739 34.1852 678.715 30.8086C735.495 29.815 791.643 28.9145 848.087 22.4267C882.75 18.4424 917.172 13.2814 951.994 10.7209C1086.04 0.864496 1221.89 6.81902 1356.2 6.81902C1433.9 6.81902 1511.61 6.81902 1589.31 6.81902C1684.06 6.81902 1778.82 7.32034 1873.57 6.81902C1883.79 6.76492 1899.21 3.61319 1909.12 7.5416C1922.25 12.7491 1925.75 29.3531 1930.22 40.6356C1951.92 95.412 1969.37 154.491 1985.13 210.73C2014.98 317.229 2039.89 424.681 2056.81 534.011C2069.95 618.855 2075.2 704.372 2085.43 789.514C2095.75 875.392 2113.18 959.494 2116.64 1046.17C2119.29 1112.42 2113.6 1179.93 2123 1245.75C2130.91 1301.1 2128.2 1357.13 2128.2 1412.95C2128.2 1487.43 2128.2 1561.9 2128.2 1636.37C2128.2 1672.21 2128.2 1708.05 2128.2 1743.89C2128.2 1774.33 2138.61 1803.7 2138.61 1833.49C2138.61 1854.54 2138.61 1875.6 2138.61 1896.65C2138.61 1911.54 2142.64 1921.76 2125.46 1925.55C2098.95 1931.39 2074.49 1940.42 2049.01 1949.39C2025 1957.85 2001.54 1957.78 1976.32 1957.78C1937.91 1957.78 1898.31 1954.91 1859.98 1958.35C1797.38 1963.99 1737.26 1980.82 1673.85 1981.19C1603.44 1981.6 1531.79 1976.88 1461.84 1986.39C1367.23 1999.25 1274.45 1999.4 1179.17 1999.4C1065.63 1999.4 952.09 1999.4 838.549 1999.4C805.985 1999.4 773.421 1999.4 740.857 1999.4C729.475 1999.4 700.101 2005.07 693.745 1993.91C680.817 1971.19 674.53 1946.07 668.888 1920.78C654.379 1855.73 632.803 1792.29 622.21 1726.41C603.661 1611.06 591.684 1495.93 579.289 1379.86C573.242 1323.24 558.637 1266.23 557.178 1209.33C556.181 1170.45 557.033 1131.46 557.033 1092.56C557.033 1061.68 554.888 1051.61 588.538 1039.53C616.461 1029.5 645.845 1019.71 674.669 1012.5C717.403 1001.82 766.651 1008.31 810.224 1008.31C825.028 1008.31 835.862 1009.84 849.099 1004.12C862.372 998.388 874.909 993.362 889.419 992.703C902.831 992.093 916.001 988.047 929.305 986.2C945.512 983.949 962.118 984.899 978.44 984.899" stroke="#FF814A" stroke-width="10" stroke-linecap="round"/>
</svg>
